<svg xmlns="http://www.w3.org/2000/svg" viewBox="0 0 64 64" role="img" aria-labelledby="title desc">
  <title id="title">CC &amp; CO. eyelash favicon</title>
  <desc id="desc">A refined eyelash mark in warm brown on an ivory rounded square.</desc>
  <rect width="64" height="64" rx="16" fill="#fbf7f1"/>
  <circle cx="48" cy="16" r="18" fill="#ead1c7" opacity="0.42"/>
  <circle cx="14" cy="52" r="16" fill="#dbc4a4" opacity="0.28"/>
  <path d="M12 38.5C23.5 28.5 40.5 27.5 52 35.5" fill="none" stroke="#5e4638" stroke-width="3.4" stroke-linecap="round"/>
  <path d="M20 33.5C18.5 29.5 16 25.5 12.5 22.5" fill="none" stroke="#5e4638" stroke-width="2.4" stroke-linecap="round"/>
  <path d="M26.5 30.5C25.8 26 24.2 21.5 21.5 18" fill="none" stroke="#5e4638" stroke-width="2.4" stroke-linecap="round"/>
  <path d="M33.5 29C34 24.4 33.2 19.4 31 15.5" fill="none" stroke="#5e4638" stroke-width="2.4" stroke-linecap="round"/>
  <path d="M40.5 30C42.2 25.8 42.8 21.2 42 17" fill="none" stroke="#5e4638" stroke-width="2.4" stroke-linecap="round"/>
  <path d="M47 33C50 29.6 51.8 26 52 22" fill="none" stroke="#5e4638" stroke-width="2.4" stroke-linecap="round"/>
  <path d="M15.5 40.5C26.5 34.5 40.5 34 50 38.8" fill="none" stroke="#d7b6a5" stroke-width="1.4" stroke-linecap="round" opacity="0.8"/>
</svg>
